<svg width="24" height="17" viewBox="0 0 24 17" fill="none" xmlns="http://www.w3.org/2000/svg">
<path d="M21.8906 0.730774H2.10938C0.947719 0.730774 0 1.55933 0 2.57693V14.8846C0 15.8988 0.9435 16.7308 2.10938 16.7308H21.8906C23.0494 16.7308 24 15.905 24 14.8846V2.57693C24 1.56277 23.0565 0.730774 21.8906 0.730774ZM21.5993 1.96154L12.0447 10.3239L2.40745 1.96154H21.5993ZM1.40625 14.6298V2.82591L8.1787 8.70243L1.40625 14.6298ZM2.40061 15.5L9.17733 9.56893L11.5519 11.6293C11.8267 11.8678 12.2703 11.8671 12.5441 11.6274L14.8594 9.60105L21.5994 15.5H2.40061ZM22.5938 14.6297L15.8537 8.73077L22.5938 2.83178V14.6297Z" fill="#B7B7D3"/>
</svg>
