<svg width="70" height="61" viewBox="0 0 70 61" fill="none" xmlns="http://www.w3.org/2000/svg">
<path d="M34.9862 5.57914C34.9862 5.57914 25.217 19.4233 25.217 33.1851C25.217 46.9634 34.9862 60.7911 34.9862 60.7911C34.9862 60.7911 44.7553 46.9469 44.7553 33.1851C44.7701 19.4233 34.9862 5.57914 34.9862 5.57914Z" fill="url(#paint0_linear)"/>
<path d="M14.3009 13.582C14.3009 13.582 10.6048 29.688 15.7681 41.466C20.9314 53.244 34.9901 60.7911 34.9901 60.7911C34.9901 60.7911 38.6862 44.6851 33.5229 32.9071C28.3596 21.129 14.3009 13.582 14.3009 13.582Z" fill="url(#paint1_linear)"/>
<path d="M55.6991 13.582C55.6991 13.582 59.3952 29.688 54.2319 41.466C49.0686 53.2441 35.0099 60.7911 35.0099 60.7911C35.0099 60.7911 31.3138 44.6851 36.4771 32.9071C41.6404 21.1291 55.6991 13.582 55.6991 13.582Z" fill="url(#paint2_linear)"/>
<path d="M0 23.9362C0 23.9362 1.83781 40.397 10.5622 49.5874C19.2866 58.7778 34.9862 60.7911 34.9862 60.7911C34.9862 60.7911 33.1483 44.3303 24.424 35.1399C15.6848 25.9494 0 23.9362 0 23.9362Z" fill="url(#paint3_linear)"/>
<path d="M70 23.9362C70 23.9362 68.1622 40.397 59.4378 49.5874C50.7134 58.7778 35.0138 60.7911 35.0138 60.7911C35.0138 60.7911 36.8517 44.3303 45.576 35.1399C54.3152 25.9494 70 23.9362 70 23.9362Z" fill="url(#paint4_linear)"/>
<path opacity="0.6" d="M50.9551 46.5038C50.8073 45.8534 49.8911 45.0947 49.4034 44.816C48.9158 44.5218 48.0882 44.5682 47.7483 44.7695C47.4084 44.9708 46.5956 45.2805 46.108 45.4199C45.6203 45.5592 44.9405 45.838 44.6302 46.0702C44.3199 46.3025 43.847 46.8599 43.847 46.8599C43.847 46.8599 43.0637 47.2625 42.5022 47.6961C41.9406 48.1297 40.9948 49.0897 40.9062 49.0897C40.8175 49.0897 40.8175 48.9813 40.788 48.8574C40.7584 48.7336 40.8175 48.5787 40.8471 48.5013C40.8766 48.4239 41.0096 48.2226 41.0244 47.9284C41.0392 47.6342 41.0687 47.4793 40.9357 47.278C40.8027 47.0767 40.6402 46.6277 40.6402 46.6277C40.6402 46.6277 40.6845 46.4573 40.7141 46.2715C40.7436 46.0857 40.7732 45.6986 40.7732 45.4818C40.7732 45.2495 40.8027 45.2805 40.8618 45.1257C40.921 44.9708 40.8323 44.9399 40.921 44.1966C41.0096 43.4533 41.2756 40.79 41.5416 39.9538C41.7929 39.1177 42.118 37.0582 42.1919 36.5008C42.2657 35.9279 42.1032 35.9124 42.1032 35.9124C42.1032 35.9124 42.1919 35.5717 42.3101 35.0143C42.4283 34.4568 42.5317 33.6671 42.6056 32.6142C42.6943 31.5612 42.8273 30.9418 43.1376 30.2605C43.4332 29.5792 44.4824 26.8694 44.8962 25.6152C45.3248 24.3609 45.5908 22.7041 45.7829 21.4034C45.9602 20.1182 46.1671 17.749 46.1375 17.3619C46.108 16.9748 45.9159 16.8509 45.5464 16.3709C45.177 15.8909 43.3593 14.0482 43.3593 14.0482C43.3593 14.0482 39.8274 10.9823 38.9851 10.2236C38.1427 9.46481 37.3595 8.6751 36.9901 8.0712C36.6354 7.48279 36.6797 7.1731 36.6206 6.94083C36.5615 6.70856 36.4137 5.81046 36.325 5.31496C36.2364 4.80397 36.0886 4.5717 36.0295 4.3704C35.9852 4.1691 35.9556 3.11615 35.9261 2.8684C35.8965 2.62065 35.7783 2.18708 35.7635 1.9703C35.7487 1.75352 35.66 1.49028 35.66 1.11865C35.6453 0.747021 35.6896 0.143124 35.6896 0.143124C35.6896 0.143124 35.6157 -0.0272055 35.4384 0.0037636C35.261 0.0347327 35.0985 0.344423 35.0985 0.344423C35.0985 0.344423 35.0098 0.158609 34.8768 0.0966708C34.7438 0.0347327 34.6552 0.0966707 34.5813 0.328939C34.5222 0.561207 34.4778 1.1651 34.4483 1.47479C34.4187 1.78448 34.2857 2.27999 34.197 2.58968C34.0936 2.89937 34.0345 3.25551 34.0049 3.6736C33.9754 4.07619 33.6207 4.81945 33.4581 5.16011C33.2956 5.50077 33.4286 5.93434 33.2956 6.19757C33.1626 6.46081 33.2365 7.03374 33.0444 7.65312C32.8523 8.25702 32.3055 8.82994 31.9508 9.26351C31.5961 9.69708 29.5125 11.1217 29.0248 11.6172C28.5371 12.1281 26.3205 14.0018 25.8476 14.4818C25.3599 14.9463 24.5028 15.9373 24.2368 16.2006C23.9856 16.4638 23.6604 16.7735 23.5274 16.9438C23.3944 17.1142 23.69 18.9259 23.69 19.6072C23.69 20.273 24.1038 22.735 24.4584 24.1596C24.8131 25.5687 25.7146 27.4578 26.0397 28.0617C26.3648 28.6656 27.1628 31.0967 27.1628 31.0967C27.1628 31.0967 27.2219 32.8155 27.3253 33.7291C27.4288 34.6427 27.6505 35.8504 27.6505 35.8504L27.6209 35.9588C27.5913 36.0672 27.8721 37.0737 27.8721 37.0737C27.8721 37.0737 28.8327 42.4314 28.9066 43.2056C28.9657 43.9798 29.2612 45.6367 29.2612 45.6367C29.2612 45.6367 29.0691 46.2406 29.01 46.8135C28.9509 47.3864 29.2021 47.6187 28.9805 47.8974C28.7588 48.1606 28.5371 48.7336 28.5371 48.7336C28.5371 48.7336 28.0199 48.269 27.5027 47.7271C26.9855 47.1851 26.0249 46.6432 26.0249 46.6432C26.0249 46.6432 25.8623 46.3799 25.6998 46.1012C25.5372 45.838 24.9609 45.3889 24.6358 45.265C24.3107 45.1257 23.4092 44.6302 22.9659 44.2895C22.5225 43.9488 21.8132 43.825 21.1334 43.8869C20.4537 43.9488 19.5965 44.6921 19.168 45.5747C18.7542 46.4573 19.0645 47.4329 19.3305 48.331C19.5818 49.2446 19.9069 50.5917 20.6162 51.6911C21.3255 52.806 22.5964 54.8654 23.2467 55.6242C24.1186 56.6307 26.5126 58.4269 27.9017 59.0617C30.1479 60.0682 33.399 59.0927 35.4236 59.263C37.7437 59.4643 41.6007 59.805 43.581 58.3804C45.2656 57.1881 47.5267 54.8345 47.5267 54.8345C48.0587 54.0757 49.3739 52.4034 49.7433 51.7221C50.1128 51.0562 50.2458 50.6227 50.4231 50.1427C50.6004 49.6626 50.7482 48.811 50.9108 48.269C51.1029 47.6961 51.1029 47.1541 50.9551 46.5038ZM39.4727 26.9004C39.3102 27.1327 38.8668 27.814 38.6747 28.0772C38.4826 28.3404 38.3792 28.5417 38.2314 28.5882C38.0688 28.6192 37.5221 28.6966 37.2708 28.4798C37.0196 28.2785 37.1378 28.0462 37.1674 27.5353C37.1969 27.0243 37.4629 25.6461 37.5516 25.3519C37.6551 25.0422 38.0984 24.0667 38.0984 24.0667C38.0984 24.0667 38.2609 24.1751 38.4235 24.1751C38.5861 24.1751 38.7191 24.0357 38.7486 23.8654C38.7782 23.6951 38.9703 23.2306 38.9998 22.9518C39.0294 22.6886 39.2511 22.0382 39.192 21.6356C39.1328 21.233 39.0294 21.326 39.0294 21.326C39.0294 21.326 38.9703 20.4433 38.6452 19.0962C38.3201 17.749 36.9753 16.3709 36.5172 15.9993C36.0738 15.6277 35.7783 15.8289 35.394 15.8289C35.0098 15.8289 34.6847 15.6277 34.0788 15.5657C33.4729 15.5038 32.8966 15.767 31.9213 16.5722C30.9607 17.3774 30.5026 18.6316 30.3105 19.3594C30.1184 20.1027 30.4435 21.744 30.4435 21.744C30.4435 21.744 30.2514 21.9144 30.2809 22.3789C30.3105 22.8434 30.5321 22.9828 30.6651 23.2925C30.7981 23.6022 30.8868 24.0357 31.0198 24.268C31.1528 24.5003 31.537 24.4693 31.537 24.4693L31.67 24.6396C31.803 24.81 32.1429 25.3055 32.1429 25.3055C32.1429 25.3055 32.7045 27.6282 32.7636 27.8604C32.8227 28.0927 32.6601 28.3714 32.6601 28.3714L31.7883 28.4334C31.7883 28.4334 31.537 27.9998 31.1528 27.3959C30.7686 26.792 30.2809 26.281 29.808 25.7855C29.3204 25.2745 28.877 24.5777 28.6554 24.0977C28.4337 23.6332 27.946 21.8369 27.6948 20.9388C27.4436 20.0253 26.8968 18.9878 26.9263 18.6162C26.9559 18.2445 27.5766 17.3 28.1825 16.5258C28.7884 15.7515 30.6208 13.5682 31.271 12.7166C31.9065 11.8804 33.9015 9.75902 34.064 9.58869C34.2266 9.41836 34.5517 9.24803 34.6699 9.12415C34.8029 8.98479 34.9655 8.38089 34.9655 8.38089C34.9655 8.38089 35.0689 8.58219 35.128 8.75252C35.1872 8.92285 35.261 9.12415 35.4532 9.26351C35.6453 9.40287 35.8669 9.66611 36.059 9.83644C36.2512 10.0068 37.0935 10.9204 37.8324 11.7565C38.5713 12.5927 41.6303 16.6341 41.9111 17.0367C42.2066 17.4393 42.783 18.3529 42.783 18.6936C42.783 19.0342 42.2657 20.5517 42.0736 21.2795C41.8815 22.0228 41.4973 24.0357 41.3052 24.3454C41.1131 24.6551 40.5958 25.3829 40.3151 25.6926C39.99 26.0178 39.6353 26.6681 39.4727 26.9004Z" fill="#2B2B95"/>
<defs>
<linearGradient id="paint0_linear" x1="34.9921" y1="5.32745" x2="34.9921" y2="60.6657" gradientUnits="userSpaceOnUse">
<stop stop-color="#F3E3FF" stop-opacity="0.75"/>
<stop offset="1" stop-color="#C38EED" stop-opacity="0.55"/>
</linearGradient>
<linearGradient id="paint1_linear" x1="24.6525" y1="13.3668" x2="24.6525" y2="60.6839" gradientUnits="userSpaceOnUse">
<stop stop-color="#F3E3FF" stop-opacity="0.75"/>
<stop offset="1" stop-color="#C38EED" stop-opacity="0.55"/>
</linearGradient>
<linearGradient id="paint2_linear" x1="45.3475" y1="13.3668" x2="45.3475" y2="60.6839" gradientUnits="userSpaceOnUse">
<stop stop-color="#F3E3FF" stop-opacity="0.75"/>
<stop offset="1" stop-color="#C38EED" stop-opacity="0.55"/>
</linearGradient>
<linearGradient id="paint3_linear" x1="17.5037" y1="23.7682" x2="17.5037" y2="60.7074" gradientUnits="userSpaceOnUse">
<stop stop-color="#F3E3FF" stop-opacity="0.75"/>
<stop offset="1" stop-color="#C38EED" stop-opacity="0.55"/>
</linearGradient>
<linearGradient id="paint4_linear" x1="52.4963" y1="23.7682" x2="52.4963" y2="60.7074" gradientUnits="userSpaceOnUse">
<stop stop-color="#F3E3FF" stop-opacity="0.75"/>
<stop offset="1" stop-color="#C38EED" stop-opacity="0.55"/>
</linearGradient>
</defs>
</svg>
